<?xml version="1.0" encoding="UTF-8" standalone="no"?>
<!-- Created with Inkscape (http://www.inkscape.org/) -->

<svg
   version="1.1"
   id="svg2301"
   xml:space="preserve"
   width="682.66669"
   height="682.66669"
   viewBox="0 0 682.66669 682.66669"
   xmlns="http://www.w3.org/2000/svg"
   xmlns:svg="http://www.w3.org/2000/svg"><defs
     id="defs2305"><clipPath
       clipPathUnits="userSpaceOnUse"
       id="clipPath2315"><path
         d="M 0,512 H 512 V 0 H 0 Z"
         id="path2313" /></clipPath><clipPath
       clipPathUnits="userSpaceOnUse"
       id="clipPath2327"><path
         d="M 0,512 H 512 V 0 H 0 Z"
         id="path2325" /></clipPath></defs><g
     id="g2307"
     transform="matrix(1.3333333,0,0,-1.3333333,0,682.66667)"><g
       id="g2309"><g
         id="g2311"
         clip-path="url(#clipPath2315)"><g
           id="g2317"
           transform="translate(84.79,563.8481)"><path
             d="M 0,0 C 0,0 151.936,-54.784 343.419,0"
             style="fill:none;stroke:#000000;stroke-width:15;stroke-linecap:round;stroke-linejoin:round;stroke-miterlimit:10;stroke-dasharray:none;stroke-opacity:1"
             id="path2319" /></g></g></g><g
       id="g2321"><g
         id="g2323"
         clip-path="url(#clipPath2327)"><g
           id="g2329"
           transform="translate(504.5,255.7002)"><path
             d="m 0,0 c 0,0 -90.62,-150.1 -248.46,-150.1 -5.76,0 -11.42,0.2 -17,0.59 C -412.79,-139.35 -496.92,0 -496.92,0 c 0,0 84.13,139.34 231.46,149.5 5.58,0.39 11.24,0.59 17,0.59 C -90.62,150.09 0,0 0,0"
             style="fill:#edf8f9;fill-opacity:1;fill-rule:nonzero;stroke:none"
             id="path2331" /></g><g
           id="g2333"
           transform="translate(504.5,255.7002)"><path
             d="m 0,0 c 0,0 -90.62,-150.1 -248.46,-150.1 -5.76,0 -11.42,0.2 -17,0.59 C -118.13,-139.35 -34,0 -34,0 c 0,0 -84.13,139.34 -231.46,149.5 5.58,0.39 11.24,0.59 17,0.59 C -90.62,150.09 0,0 0,0"
             style="fill:#daeeef;fill-opacity:1;fill-rule:nonzero;stroke:none"
             id="path2335" /></g><g
           id="g2337"
           transform="translate(362.7197,255.7002)"><path
             d="m 0,0 c 0,-58.69 -47.54,-106.26 -106.18,-106.26 -4.75,0 -9.42,0.31 -14,0.92 -52.03,6.85 -92.18,51.4 -92.18,105.34 0,53.93 40.15,98.48 92.18,105.34 4.58,0.61 9.25,0.92 14,0.92 C -47.54,106.26 0,58.68 0,0"
             style="fill:#66f1ff;fill-opacity:1;fill-rule:nonzero;stroke:none"
             id="path2339" /></g><g
           id="g2341"
           transform="translate(362.7197,255.7002)"><path
             d="m 0,0 c 0,-58.69 -47.54,-106.26 -106.18,-106.26 -4.75,0 -9.42,0.31 -14,0.92 52.03,6.85 92.18,51.4 92.18,105.34 0,53.93 -40.15,98.48 -92.18,105.34 4.58,0.61 9.25,0.92 14,0.92 C -47.54,106.26 0,58.68 0,0"
             style="fill:#66d4ff;fill-opacity:1;fill-rule:nonzero;stroke:none"
             id="path2343" /></g><g
           id="g2345"
           transform="translate(292.6201,255.7002)"><path
             d="m 0,0 c 0,-19.94 -16.16,-36.11 -36.08,-36.11 -4.21,0 -8.25,0.72 -12,2.05 -14.03,4.95 -24.08,18.33 -24.08,34.06 0,15.73 10.05,29.1 24.08,34.05 3.75,1.33 7.79,2.05 12,2.05 C -16.16,36.1 0,19.94 0,0"
             style="fill:#96c9d6;fill-opacity:1;fill-rule:nonzero;stroke:none"
             id="path2347" /></g><g
           id="g2349"
           transform="translate(292.6201,255.7002)"><path
             d="m 0,0 c 0,-19.94 -16.16,-36.11 -36.08,-36.11 -4.21,0 -8.25,0.72 -12,2.05 14.03,4.95 24.08,18.33 24.08,34.06 0,15.73 -10.05,29.1 -24.08,34.05 3.75,1.33 7.79,2.05 12,2.05 C -16.16,36.1 0,19.94 0,0"
             style="fill:#77a5af;fill-opacity:1;fill-rule:nonzero;stroke:none"
             id="path2351" /></g><g
           id="g2353"
           transform="translate(22.4976,137.4912)"><path
             d="m 0,0 c -8.283,0 -14.998,-6.725 -14.998,-15.02 0,-8.295 6.715,-15.02 14.998,-15.02 8.283,0 14.998,6.725 14.998,15.02 C 14.998,-6.725 8.283,0 0,0"
             style="fill:#ff76b4;fill-opacity:1;fill-rule:nonzero;stroke:none"
             id="path2355" /></g><g
           id="g2357"
           transform="translate(489.5024,403.9409)"><path
             d="m 0,0 c -8.283,0 -14.998,-6.725 -14.998,-15.02 0,-8.295 6.715,-15.02 14.998,-15.02 8.283,0 14.998,6.725 14.998,15.02 C 14.998,-6.725 8.283,0 0,0"
             style="fill:#ff76b4;fill-opacity:1;fill-rule:nonzero;stroke:none"
             id="path2359" /></g><g
           id="g2361"
           transform="translate(49.2573,203.2021)"><path
             d="m 0,0 c 41.205,-43.283 111.83,-97.599 206.783,-97.599 4.933,0 9.8,0.147 14.6,0.431"
             style="fill:none;stroke:#000000;stroke-width:15;stroke-linecap:round;stroke-linejoin:round;stroke-miterlimit:10;stroke-dasharray:none;stroke-opacity:1"
             id="path2363" /></g><g
           id="g2365"
           transform="translate(448.23,322.7256)"><path
             d="m 0,0 c -42.376,39.996 -107.638,83.063 -192.189,83.063 -157.843,0 -248.46,-150.092 -248.46,-150.092 0,0 6.775,-11.223 19.848,-27.531"
             style="fill:none;stroke:#000000;stroke-width:15;stroke-linecap:round;stroke-linejoin:round;stroke-miterlimit:10;stroke-dasharray:none;stroke-opacity:1"
             id="path2367" /></g><g
           id="g2369"
           transform="translate(308.3569,111.2236)"><path
             d="m 0,0 c 125.382,27.268 196.143,144.473 196.143,144.473 0,0 -10.99,18.202 -31.981,41.93"
             style="fill:none;stroke:#000000;stroke-width:15;stroke-linecap:round;stroke-linejoin:round;stroke-miterlimit:10;stroke-dasharray:none;stroke-opacity:1"
             id="path2371" /></g><g
           id="g2373"
           transform="translate(199.2788,345.1943)"><path
             d="m 0,0 c 16.521,10.609 36.174,16.762 57.262,16.762 58.64,0 106.177,-47.574 106.177,-106.26 0,-58.686 -47.537,-106.26 -106.177,-106.26 -58.64,0 -106.178,47.574 -106.178,106.26 0,25.414 8.916,48.745 23.787,67.03"
             style="fill:none;stroke:#000000;stroke-width:15;stroke-linecap:round;stroke-linejoin:round;stroke-miterlimit:10;stroke-dasharray:none;stroke-opacity:1"
             id="path2375" /></g><g
           id="g2377"
           transform="translate(292.6172,255.6963)"><path
             d="m 0,0 c 0,-19.94 -16.152,-36.105 -36.077,-36.105 -19.924,0 -36.076,16.165 -36.076,36.105 0,19.94 16.152,36.104 36.076,36.104 C -16.152,36.104 0,19.94 0,0 Z"
             style="fill:none;stroke:#000000;stroke-width:15;stroke-linecap:round;stroke-linejoin:round;stroke-miterlimit:10;stroke-dasharray:none;stroke-opacity:1"
             id="path2379" /></g><g
           id="g2381"
           transform="translate(198.0396,222.1831)"><path
             d="M 0,0 -6.954,-4.018"
             style="fill:none;stroke:#000000;stroke-width:15;stroke-linecap:round;stroke-linejoin:round;stroke-miterlimit:10;stroke-dasharray:none;stroke-opacity:1"
             id="path2383" /></g><g
           id="g2385"
           transform="translate(320.9951,293.2271)"><path
             d="M 0,0 -6.954,-4.018"
             style="fill:none;stroke:#000000;stroke-width:15;stroke-linecap:round;stroke-linejoin:round;stroke-miterlimit:10;stroke-dasharray:none;stroke-opacity:1"
             id="path2387" /></g><g
           id="g2389"
           transform="translate(289.5273,197.6499)"><path
             d="M 0,0 4.015,-6.959"
             style="fill:none;stroke:#000000;stroke-width:15;stroke-linecap:round;stroke-linejoin:round;stroke-miterlimit:10;stroke-dasharray:none;stroke-opacity:1"
             id="path2391" /></g><g
           id="g2393"
           transform="translate(218.5391,320.7017)"><path
             d="M 0,0 4.015,-6.959"
             style="fill:none;stroke:#000000;stroke-width:15;stroke-linecap:round;stroke-linejoin:round;stroke-miterlimit:10;stroke-dasharray:none;stroke-opacity:1"
             id="path2395" /></g><g
           id="g2397"
           transform="translate(314.0415,222.1831)"><path
             d="M 0,0 6.954,-4.018"
             style="fill:none;stroke:#000000;stroke-width:15;stroke-linecap:round;stroke-linejoin:round;stroke-miterlimit:10;stroke-dasharray:none;stroke-opacity:1"
             id="path2399" /></g><g
           id="g2401"
           transform="translate(191.0859,293.2271)"><path
             d="M 0,0 6.954,-4.018"
             style="fill:none;stroke:#000000;stroke-width:15;stroke-linecap:round;stroke-linejoin:round;stroke-miterlimit:10;stroke-dasharray:none;stroke-opacity:1"
             id="path2403" /></g><g
           id="g2405"
           transform="translate(222.5537,197.6499)"><path
             d="M 0,0 -4.015,-6.959"
             style="fill:none;stroke:#000000;stroke-width:15;stroke-linecap:round;stroke-linejoin:round;stroke-miterlimit:10;stroke-dasharray:none;stroke-opacity:1"
             id="path2407" /></g><g
           id="g2409"
           transform="translate(293.542,320.7017)"><path
             d="M 0,0 -4.015,-6.959"
             style="fill:none;stroke:#000000;stroke-width:15;stroke-linecap:round;stroke-linejoin:round;stroke-miterlimit:10;stroke-dasharray:none;stroke-opacity:1"
             id="path2411" /></g><g
           id="g2413"
           transform="translate(189.0664,255.6963)"><path
             d="M 0,0 H -8.029"
             style="fill:none;stroke:#000000;stroke-width:15;stroke-linecap:round;stroke-linejoin:round;stroke-miterlimit:10;stroke-dasharray:none;stroke-opacity:1"
             id="path2415" /></g><g
           id="g2417"
           transform="translate(331.0435,255.6963)"><path
             d="M 0,0 H -8.029"
             style="fill:none;stroke:#000000;stroke-width:15;stroke-linecap:round;stroke-linejoin:round;stroke-miterlimit:10;stroke-dasharray:none;stroke-opacity:1"
             id="path2419" /></g><g
           id="g2421"
           transform="translate(256.0405,188.6699)"><path
             d="M 0,0 V -8.035"
             style="fill:none;stroke:#000000;stroke-width:15;stroke-linecap:round;stroke-linejoin:round;stroke-miterlimit:10;stroke-dasharray:none;stroke-opacity:1"
             id="path2423" /></g><g
           id="g2425"
           transform="translate(256.0405,330.7578)"><path
             d="M 0,0 V -8.036"
             style="fill:none;stroke:#000000;stroke-width:15;stroke-linecap:round;stroke-linejoin:round;stroke-miterlimit:10;stroke-dasharray:none;stroke-opacity:1"
             id="path2427" /></g><g
           id="g2429"
           transform="translate(256.5405,255.6963)"><path
             d="M 0,0 V 0"
             style="fill:none;stroke:#000000;stroke-width:15;stroke-linecap:round;stroke-linejoin:round;stroke-miterlimit:10;stroke-dasharray:none;stroke-opacity:1"
             id="path2431" /></g><g
           id="g2433"
           transform="translate(37.4951,122.4712)"><path
             d="m 0,0 c 0,-8.295 -6.715,-15.02 -14.998,-15.02 -8.282,0 -14.997,6.725 -14.997,15.02 0,8.295 6.715,15.02 14.997,15.02 C -6.715,15.02 0,8.295 0,0 Z"
             style="fill:none;stroke:#000000;stroke-width:15;stroke-linecap:round;stroke-linejoin:round;stroke-miterlimit:10;stroke-dasharray:none;stroke-opacity:1"
             id="path2435" /></g><g
           id="g2437"
           transform="translate(37.4951,122.4712)"><path
             d="M 0,0 C 68.248,0 57.542,56.558 57.542,87.484"
             style="fill:none;stroke:#000000;stroke-width:15;stroke-linecap:round;stroke-linejoin:round;stroke-miterlimit:10;stroke-dasharray:none;stroke-opacity:1"
             id="path2439" /></g><g
           id="g2441"
           transform="translate(474.5049,388.9214)"><path
             d="M 0,0 C 0,8.295 6.715,15.02 14.998,15.02 23.28,15.02 29.995,8.295 29.995,0 29.995,-8.295 23.28,-15.02 14.998,-15.02 6.715,-15.02 0,-8.295 0,0 Z"
             style="fill:none;stroke:#000000;stroke-width:15;stroke-linecap:round;stroke-linejoin:round;stroke-miterlimit:10;stroke-dasharray:none;stroke-opacity:1"
             id="path2443" /></g><g
           id="g2445"
           transform="translate(474.5049,388.9214)"><path
             d="M 0,0 C -68.248,0 -57.542,-56.558 -57.542,-87.484"
             style="fill:none;stroke:#000000;stroke-width:15;stroke-linecap:round;stroke-linejoin:round;stroke-miterlimit:10;stroke-dasharray:none;stroke-opacity:1"
             id="path2447" /></g><g
           id="g2449"
           transform="translate(370.5854,158.3301)"><path
             d="m 0,0 c 0,-47.464 -10.706,-116.501 57.542,-116.501 h 75.913"
             style="fill:none;stroke:#000000;stroke-width:15;stroke-linecap:round;stroke-linejoin:round;stroke-miterlimit:10;stroke-dasharray:none;stroke-opacity:1"
             id="path2451" /></g><g
           id="g2453"
           transform="translate(504.0405,78.5361)"><path
             d="M 0,0 H -59.071"
             style="fill:none;stroke:#000000;stroke-width:15;stroke-linecap:round;stroke-linejoin:round;stroke-miterlimit:10;stroke-dasharray:none;stroke-opacity:1"
             id="path2455" /></g><g
           id="g2457"
           transform="translate(141.4956,353.3271)"><path
             d="m 0,0 c 0,47.463 10.706,116.501 -57.542,116.501 h -76.373"
             style="fill:none;stroke:#000000;stroke-width:15;stroke-linecap:round;stroke-linejoin:round;stroke-miterlimit:10;stroke-dasharray:none;stroke-opacity:1"
             id="path2459" /></g><g
           id="g2461"
           transform="translate(7.5811,433.1206)"><path
             d="M 0,0 H 74.069"
             style="fill:none;stroke:#000000;stroke-width:15;stroke-linecap:round;stroke-linejoin:round;stroke-miterlimit:10;stroke-dasharray:none;stroke-opacity:1"
             id="path2463" /></g></g></g></g></svg>
