<?xml version="1.0" encoding="UTF-8"?>
<svg xmlns="http://www.w3.org/2000/svg" xmlns:xlink="http://www.w3.org/1999/xlink" version="1.1" width="512" height="512" x="0" y="0" viewBox="0 0 256 256" style="enable-background:new 0 0 512 512" xml:space="preserve" class="">
  <g>
    <g fill="none" stroke-miterlimit="10" stroke-width="0" transform="matrix(2.81 0 0 2.81 1.407 1.407)">
      <path fill="#b4b3b3" d="M61.967 39.436c-1.199 0-2.274-.69-2.825-1.754a15.607 15.607 0 0 0-.721-1.247c-.647-1.009-.706-2.285-.107-3.323a3.153 3.153 0 0 0-1.154-4.307l-4.176-2.411a3.153 3.153 0 0 0-4.307 1.154l-.001.001a3.147 3.147 0 0 1-2.883 1.568 15.882 15.882 0 0 0-1.543 0 3.144 3.144 0 0 1-2.877-1.569v-.001a3.153 3.153 0 0 0-4.307-1.154l-4.176 2.411a3.153 3.153 0 0 0-1.154 4.307l.001.001a3.144 3.144 0 0 1-.08 3.276c-.279.434-.537.88-.771 1.336a3.148 3.148 0 0 1-2.8 1.712h-.002a3.153 3.153 0 0 0-3.153 3.153v4.822a3.153 3.153 0 0 0 3.153 3.153c1.199 0 2.274.69 2.825 1.754a15.607 15.607 0 0 0 .721 1.248c.647 1.009.706 2.285.107 3.323a3.153 3.153 0 0 0 1.154 4.307l4.176 2.411a3.153 3.153 0 0 0 4.307-1.154l.001-.001a3.147 3.147 0 0 1 2.883-1.568c.513.025 1.028.025 1.543 0a3.144 3.144 0 0 1 2.877 1.569l.001.001a3.153 3.153 0 0 0 4.307 1.154l4.176-2.411a3.153 3.153 0 0 0 1.154-4.307l-.001-.001a3.147 3.147 0 0 1 .08-3.276c.279-.434.537-.88.771-1.336a3.148 3.148 0 0 1 2.8-1.712h.002a3.153 3.153 0 0 0 3.153-3.153V42.59a3.155 3.155 0 0 0-3.154-3.154z" opacity="1" data-original="#f7bf50" class=""/>
      <g fill="#000">
        <path d="M38.637 65.029a4.125 4.125 0 0 1-2.07-.556l-4.176-2.411c-.96-.555-1.648-1.45-1.935-2.521s-.14-2.19.415-3.151c.404-.699.373-1.574-.083-2.283a16.687 16.687 0 0 1-.766-1.328c-.388-.749-1.13-1.214-1.937-1.214a4.158 4.158 0 0 1-4.153-4.153V42.59a4.158 4.158 0 0 1 4.153-4.153c.809 0 1.541-.448 1.912-1.169.248-.482.523-.96.819-1.42.438-.68.459-1.537.056-2.235a4.127 4.127 0 0 1-.416-3.152 4.127 4.127 0 0 1 1.935-2.522l4.176-2.412c.96-.554 2.079-.702 3.151-.415s1.967.975 2.522 1.935a2.121 2.121 0 0 0 1.963 1.07 17.25 17.25 0 0 1 1.64 0c.821.05 1.564-.37 1.968-1.069a4.158 4.158 0 0 1 5.674-1.521l4.177 2.411a4.16 4.16 0 0 1 1.521 5.673c-.404.699-.372 1.574.082 2.284a17.21 17.21 0 0 1 .766 1.326c.388.75 1.13 1.215 1.937 1.215a4.158 4.158 0 0 1 4.153 4.153v4.822a4.158 4.158 0 0 1-4.153 4.153 2.14 2.14 0 0 0-1.911 1.169c-.245.479-.521.956-.82 1.421a2.14 2.14 0 0 0-.055 2.235c.555.96.702 2.079.415 3.151a4.122 4.122 0 0 1-1.935 2.521l-4.177 2.411a4.156 4.156 0 0 1-5.673-1.52 2.127 2.127 0 0 0-1.963-1.071c-.544.028-1.097.026-1.64 0a2.123 2.123 0 0 0-1.969 1.071 4.153 4.153 0 0 1-3.603 2.077zm7.318-5.149a4.13 4.13 0 0 1 3.589 2.073c.287.498.752.854 1.308 1.004a2.14 2.14 0 0 0 1.633-.216l4.177-2.411c.498-.287.854-.751 1.003-1.307s.072-1.136-.215-1.634a4.137 4.137 0 0 1 .104-4.318c.264-.409.507-.83.723-1.251a4.133 4.133 0 0 1 3.689-2.256 2.156 2.156 0 0 0 2.154-2.153v-4.822a2.156 2.156 0 0 0-2.153-2.153c-1.558 0-2.98-.879-3.713-2.295a14.19 14.19 0 0 0-.674-1.167c-.86-1.342-.91-3.014-.131-4.363a2.154 2.154 0 0 0-.788-2.94l-4.177-2.411a2.131 2.131 0 0 0-1.633-.215 2.138 2.138 0 0 0-1.308 1.003 4.14 4.14 0 0 1-3.798 2.069 15.16 15.16 0 0 0-1.446 0 4.142 4.142 0 0 1-3.792-2.067 2.151 2.151 0 0 0-2.942-.789l-4.176 2.412a2.136 2.136 0 0 0-1.003 1.307 2.135 2.135 0 0 0 .215 1.633 4.13 4.13 0 0 1-.105 4.318c-.261.405-.504.827-.723 1.252a4.132 4.132 0 0 1-3.688 2.255 2.157 2.157 0 0 0-2.155 2.153v4.822c0 1.188.966 2.153 2.153 2.153 1.558 0 2.98.879 3.713 2.294a14.31 14.31 0 0 0 .674 1.169c.86 1.341.911 3.013.131 4.362a2.14 2.14 0 0 0-.214 1.634c.148.556.505 1.02 1.003 1.307l4.176 2.411a2.155 2.155 0 0 0 2.942-.789 4.132 4.132 0 0 1 3.797-2.067c.478.023.963.023 1.445 0 .069-.005.137-.007.205-.007z" fill="#000000" opacity="1" data-original="#000000" class=""/>
        <path d="M44.131 52.722a1 1 0 0 1-1-1V41.177a1.901 1.901 0 0 0-1.898-1.899h-2.547a1.901 1.901 0 0 0-1.899 1.899v10.545a1 1 0 1 1-2 0V41.177a3.903 3.903 0 0 1 3.899-3.899h2.547a3.903 3.903 0 0 1 3.898 3.899v10.545a1 1 0 0 1-1 1z" fill="#000000" opacity="1" data-original="#000000" class=""/>
        <path d="M44.131 46h-8.345a1 1 0 0 1 0-2h8.345a1 1 0 0 1 0 2zM51.51 52.722a1 1 0 0 1-1-1V38.278a1 1 0 1 1 2 0v13.444a1 1 0 0 1-1 1z" fill="#000000" opacity="1" data-original="#000000" class=""/>
        <path d="M54.266 39.278h-5.512a1 1 0 1 1 0-2h5.512a1 1 0 1 1 0 2zM54.266 52.722h-5.512a1 1 0 1 1 0-2h5.512a1 1 0 1 1 0 2zM24.932 46H12.599a1 1 0 0 1 0-2h12.333a1 1 0 0 1 0 2zM16.793 65.03h-4.195a1 1 0 1 1 0-2h3.71l5.341-6.761a1 1 0 0 1 .785-.38h9.302a1 1 0 1 1 0 2h-8.817l-5.341 6.761a.995.995 0 0 1-.785.38zM31.736 34.11h-9.302c-.306 0-.595-.14-.785-.38l-5.341-6.761h-3.71a1 1 0 0 1 0-2h4.195c.306 0 .595.14.785.38l5.341 6.761h8.817a1 1 0 0 1 0 2z" fill="#000000" opacity="1" data-original="#000000" class=""/>
      </g>
      <circle cx="6.388" cy="64.028" r="5.388" fill="#b4b3b3" opacity="1" data-original="#f7bf50" class=""/>
      <path fill="#000000" d="M6.388 70.418C2.866 70.418 0 67.553 0 64.03s2.866-6.388 6.388-6.388 6.388 2.865 6.388 6.388-2.866 6.388-6.388 6.388zm0-10.775C3.968 59.643 2 61.611 2 64.03s1.968 4.388 4.388 4.388 4.388-1.969 4.388-4.388-1.969-4.387-4.388-4.387z" opacity="1" data-original="#000000" class=""/>
      <circle cx="6.388" cy="44.998" r="5.388" fill="#3a86c9" opacity="1" data-original="#7ec6c5" class=""/>
      <path fill="#000000" d="M6.388 51.388C2.866 51.388 0 48.522 0 45s2.866-6.388 6.388-6.388 6.388 2.866 6.388 6.388a6.396 6.396 0 0 1-6.388 6.388zm0-10.776C3.968 40.612 2 42.581 2 45s1.968 4.388 4.388 4.388 4.388-1.969 4.388-4.388a4.394 4.394 0 0 0-4.388-4.388z" opacity="1" data-original="#000000" class=""/>
      <circle cx="6.388" cy="25.968" r="5.388" fill="#f6d600" opacity="1" data-original="#f17b7b" class=""/>
      <path fill="#000000" d="M6.388 32.357A6.395 6.395 0 0 1 0 25.969c0-3.522 2.866-6.388 6.388-6.388s6.388 2.866 6.388 6.388a6.396 6.396 0 0 1-6.388 6.388zm0-10.775C3.968 21.582 2 23.55 2 25.969s1.968 4.388 4.388 4.388 4.388-1.969 4.388-4.388-1.969-4.387-4.388-4.387zM77.401 46H65.068a1 1 0 1 1 0-2h12.333a1 1 0 1 1 0 2zM77.401 65.03h-4.194a.998.998 0 0 1-.784-.38l-5.342-6.761h-8.817a1 1 0 1 1 0-2h9.302c.306 0 .595.14.784.38l5.342 6.761h3.71a1 1 0 1 1-.001 2zM67.565 34.11h-9.302a1 1 0 1 1 0-2h8.817l5.341-6.761c.19-.24.479-.38.785-.38H77.4a1 1 0 1 1 0 2h-3.71l-5.341 6.761a.998.998 0 0 1-.784.38z" opacity="1" data-original="#000000" class=""/>
      <circle cx="83.608" cy="64.028" r="5.388" fill="#f6d600" opacity="1" data-original="#f17b7b" class=""/>
      <path fill="#000000" d="M83.612 70.418c-3.522 0-6.388-2.865-6.388-6.388s2.865-6.388 6.388-6.388S90 60.508 90 64.03s-2.865 6.388-6.388 6.388zm0-10.775c-2.419 0-4.388 1.969-4.388 4.388s1.969 4.388 4.388 4.388S88 66.449 88 64.03s-1.969-4.387-4.388-4.387z" opacity="1" data-original="#000000" class=""/>
      <circle cx="83.608" cy="44.998" r="5.388" fill="#b4b3b3" opacity="1" data-original="#f7bf50" class=""/>
      <path fill="#000000" d="M83.612 51.388A6.395 6.395 0 0 1 77.224 45c0-3.522 2.865-6.388 6.388-6.388S90 41.478 90 45s-2.865 6.388-6.388 6.388zm0-10.776A4.393 4.393 0 0 0 79.224 45c0 2.419 1.969 4.388 4.388 4.388S88 47.419 88 45s-1.969-4.388-4.388-4.388z" opacity="1" data-original="#000000" class=""/>
      <circle cx="83.608" cy="25.968" r="5.388" fill="#3a86c9" opacity="1" data-original="#7ec6c5" class=""/>
      <path fill="#000000" d="M83.612 32.357c-3.522 0-6.388-2.866-6.388-6.388s2.865-6.388 6.388-6.388S90 22.447 90 25.969a6.394 6.394 0 0 1-6.388 6.388zm0-10.775c-2.419 0-4.388 1.968-4.388 4.388s1.969 4.388 4.388 4.388S88 28.389 88 25.969s-1.969-4.387-4.388-4.387z" opacity="1" data-original="#000000" class=""/>
    </g>
  </g>
</svg>
