<svg version="1.1" id="Capa_1" xmlns="http://www.w3.org/2000/svg" xmlns:xlink="http://www.w3.org/1999/xlink" x="0px" y="0px" viewBox="0 0 512 512" style="enable-background:new 0 0 512 512;" xml:space="preserve">
<g>
	<g>
		<g>
			<path style="fill:#B2AEE4;" d="M504.5,416.94v59.61c0,12.27-7.89,22.68-18.88,26.43c-73.449-19.737-92.807-58.5-72.51-113.98&#10;&#9;&#9;&#9;&#9;h63.44C491.99,389,504.5,401.51,504.5,416.94z"/>
			<path style="fill:#A29CDE;" d="M485.62,502.98c-2.84,0.99-5.9,1.52-9.07,1.52h-141.6c-15.44,0-27.95-12.51-27.95-27.95v-59.61&#10;&#9;&#9;&#9;&#9;c0-15.43,12.51-27.94,27.95-27.94h20.12c3.6,0,6.52-2.92,6.52-6.53v-17.34c0-8.33,10.1-12.47,15.95-6.54l27.25,27.63&#10;&#9;&#9;&#9;&#9;c1.75,1.78,4.14,2.78,6.63,2.78h1.69C410.61,443.45,435.19,481.91,485.62,502.98z"/>
		</g>
		<g>
			<path style="fill:#A4E7FF;" d="M330.79,226.39l-18.65-3.72c-5.05-1.01-9.23-4.59-10.89-9.47c-1.89-5.57-4.13-10.97-6.71-16.18&#10;&#9;&#9;&#9;&#9;c-2.28-4.63-1.86-10.12,0.99-14.41l10.56-15.83c3.85-5.78,3.09-13.47-1.82-18.38l-21.67-21.67c-4.91-4.91-12.6-5.67-18.38-1.82&#10;&#9;&#9;&#9;&#9;l-15.83,10.56c-4.29,2.85-9.78,3.271-14.41,0.99c-5.21-2.58-10.61-4.82-16.18-6.71c-4.88-1.66-8.46-5.84-9.47-10.89l-3.72-18.65&#10;&#9;&#9;&#9;&#9;c-1.36-6.81-7.34-11.71-14.29-11.71h-30.64c-6.95,0-12.93,4.9-14.29,11.71l-3.72,18.65c-0.99,4.94-4.43,9.04-9.15,10.77&#10;&#9;&#9;&#9;&#9;c-27.876,135.468,35.558,210.493,169.53,236.19h0.01l2.21-2.22c4.91-4.91,5.67-12.6,1.82-18.38l-10.56-15.83&#10;&#9;&#9;&#9;&#9;c-2.85-4.29-3.27-9.78-0.99-14.41c2.58-5.21,4.82-10.61,6.71-16.18c1.66-4.88,5.84-8.46,10.89-9.47l18.65-3.72&#10;&#9;&#9;&#9;&#9;c6.81-1.36,11.71-7.34,11.71-14.29v-30.64C342.5,233.73,337.6,227.75,330.79,226.39z"/>
			<path style="fill:#83DEFF;" d="M132.516,129.624c-0.102,0.051-0.213,0.081-0.315,0.122c-5.563,1.889-10.974,4.142-16.182,6.711&#10;&#9;&#9;&#9;&#9;c-4.629,2.284-10.121,1.868-14.415-0.995l-15.826-10.547c-5.776-3.858-13.471-3.097-18.384,1.817l-21.663,21.663&#10;&#9;&#9;&#9;&#9;c-4.913,4.913-5.675,12.608-1.817,18.384l10.547,15.836c2.863,4.284,3.279,9.776,0.995,14.405&#10;&#9;&#9;&#9;&#9;c-2.568,5.208-4.822,10.618-6.71,16.181c-1.655,4.873-5.837,8.467-10.882,9.471l-18.648,3.726&#10;&#9;&#9;&#9;&#9;c-6.812,1.361-11.715,7.34-11.715,14.283v30.637c0,6.944,4.903,12.923,11.715,14.284l18.648,3.726&#10;&#9;&#9;&#9;&#9;c5.045,1.005,9.228,4.598,10.882,9.471c1.888,5.563,4.142,10.973,6.71,16.181c2.284,4.629,1.868,10.121-0.995,14.405&#10;&#9;&#9;&#9;&#9;l-10.547,15.836c-3.858,5.776-3.096,13.471,1.817,18.384l21.663,21.663c4.913,4.914,12.608,5.675,18.384,1.817l15.826-10.547&#10;&#9;&#9;&#9;&#9;c4.294-2.863,9.786-3.279,14.415-0.995c5.208,2.569,10.618,4.822,16.182,6.711c4.873,1.655,8.466,5.837,9.471,10.882&#10;&#9;&#9;&#9;&#9;l3.726,18.648c1.36,6.812,7.34,11.715,14.283,11.715h30.637c6.944,0,12.923-4.903,14.283-11.715l3.726-18.648&#10;&#9;&#9;&#9;&#9;c1.005-5.045,4.599-9.228,9.471-10.882c5.563-1.889,10.974-4.142,16.182-6.711c4.629-2.284,10.121-1.868,14.415,0.995&#10;&#9;&#9;&#9;&#9;l15.826,10.547c5.776,3.858,13.471,3.096,18.384-1.817l19.45-19.45C188.075,324.319,130.638,244.559,132.516,129.624z"/>
			<g>
				<path style="fill:#FF97C1;" d="M277.5,256c0,32.2-14.84,60.92-38.06,79.71c-70.535-33.709-108.243-90.058-105.78-173.53&#10;&#9;&#9;&#9;&#9;&#9;c12.64-5.58,26.63-8.68,41.34-8.68C231.61,153.5,277.5,199.39,277.5,256z"/>
				<path style="fill:#FF83B4;" d="M239.44,335.71c-17.61,14.26-40.03,22.79-64.44,22.79c-56.61,0-102.5-45.89-102.5-102.5&#10;&#9;&#9;&#9;&#9;&#9;c0-41.9,25.14-77.93,61.16-93.82C140.39,237.7,175.97,295.89,239.44,335.71z"/>
			</g>
		</g>
		<g>
			<path style="fill:#8CE09F;" d="M444.5,286h-40c-16.569,0-30-13.431-30-30v0c0-16.569,13.431-30,30-30h40&#10;&#9;&#9;&#9;&#9;c16.569,0,30,13.431,30,30v0C474.5,272.569,461.069,286,444.5,286z"/>
		</g>
		<g>
			<path style="fill:#FFAA75;" d="M504.5,35.45v59.61c0,15.43-12.51,27.94-27.95,27.94h-12.86&#10;&#9;&#9;&#9;&#9;c-70.449-17.491-96.302-55.729-69.55-115.5h82.41C491.99,7.5,504.5,20.01,504.5,35.45z"/>
			<path style="fill:#FF9A5C;" d="M463.69,123h-52.27c-2.49,0-4.88,1-6.63,2.78l-27.25,27.63c-5.85,5.93-15.95,1.79-15.95-6.54&#10;&#9;&#9;&#9;&#9;v-17.34c0-3.61-2.92-6.53-6.52-6.53h-20.12C319.51,123,307,110.49,307,95.06V35.45c0-15.44,12.51-27.95,27.95-27.95h59.19&#10;&#9;&#9;&#9;&#9;C389.6,60.02,413.15,99.01,463.69,123z"/>
		</g>
	</g>
	<g>
		
			<polyline style="fill:none;stroke:#000000;stroke-width:15;stroke-linecap:round;stroke-linejoin:round;stroke-miterlimit:10;" points="&#10;&#9;&#9;&#9;306,463.5 175,463.5 175,424.5 &#9;&#9;"/>
		
			<polyline style="fill:none;stroke:#000000;stroke-width:15;stroke-linecap:round;stroke-linejoin:round;stroke-miterlimit:10;" points="&#10;&#9;&#9;&#9;305,48.5 175,48.5 175,87.5 &#9;&#9;"/>
		<g>
			<g>
				
					<polyline style="fill:none;stroke:#000000;stroke-width:15;stroke-linecap:round;stroke-linejoin:round;stroke-miterlimit:10;" points="&#10;&#9;&#9;&#9;&#9;&#9;424.5,286 424.5,318.87 454.5,348.86 454.5,387.35 &#9;&#9;&#9;&#9;"/>
			</g>
		</g>
		<g>
			<g>
				
					<polyline style="fill:none;stroke:#000000;stroke-width:15;stroke-linecap:round;stroke-linejoin:round;stroke-miterlimit:10;" points="&#10;&#9;&#9;&#9;&#9;&#9;454.5,124.65 454.5,163.14 424.5,193.13 424.5,226 &#9;&#9;&#9;&#9;"/>
			</g>
		</g>
		
			<line style="fill:none;stroke:#000000;stroke-width:15;stroke-linecap:round;stroke-linejoin:round;stroke-miterlimit:10;" x1="373.5" y1="256" x2="343.94" y2="256"/>
		<path style="fill:none;stroke:#000000;stroke-width:15;stroke-linecap:round;stroke-linejoin:round;stroke-miterlimit:10;" d="&#10;&#9;&#9;&#9;M504.5,467.24v9.31c0,15.44-12.51,27.95-27.95,27.95h-141.6c-15.44,0-27.95-12.51-27.95-27.95v-59.61&#10;&#9;&#9;&#9;c0-15.43,12.51-27.94,27.95-27.94h20.12c3.6,0,6.52-2.92,6.52-6.53v-17.34c0-8.33,10.1-12.47,15.95-6.54l27.25,27.63&#10;&#9;&#9;&#9;c1.75,1.78,4.14,2.78,6.63,2.78h65.13c15.44,0,27.95,12.51,27.95,27.94v15.3"/>
		<g>
			<g>
				<path style="fill:none;stroke:#000000;stroke-width:15;stroke-linecap:round;stroke-linejoin:round;stroke-miterlimit:10;" d="&#10;&#9;&#9;&#9;&#9;&#9;M420.75,451.748v-10c0-8.284-6.716-15-15-15l0,0c-8.284,0-15,6.716-15,15v10c0,8.284,6.716,15,15,15l0,0&#10;&#9;&#9;&#9;&#9;&#9;C414.034,466.748,420.75,460.032,420.75,451.748z"/>
			</g>
			
				<polyline style="fill:none;stroke:#000000;stroke-width:15;stroke-linecap:round;stroke-linejoin:round;stroke-miterlimit:10;" points="&#10;&#9;&#9;&#9;&#9;357,426.748 365,426.748 365,466.748 &#9;&#9;&#9;"/>
			
				<polyline style="fill:none;stroke:#000000;stroke-width:15;stroke-linecap:round;stroke-linejoin:round;stroke-miterlimit:10;" points="&#10;&#9;&#9;&#9;&#9;446.5,426.748 454.5,426.748 454.5,466.748 &#9;&#9;&#9;"/>
		</g>
		<path style="fill:none;stroke:#000000;stroke-width:15;stroke-linecap:round;stroke-linejoin:round;stroke-miterlimit:10;" d="&#10;&#9;&#9;&#9;M504.5,82.75v12.31c0,15.43-12.51,27.94-27.95,27.94h-65.13c-2.49,0-4.88,1-6.63,2.78l-27.25,27.63&#10;&#9;&#9;&#9;c-5.85,5.93-15.95,1.79-15.95-6.54v-17.34c0-3.61-2.92-6.53-6.52-6.53h-20.12C319.51,123,307,110.49,307,95.06V35.45&#10;&#9;&#9;&#9;c0-15.44,12.51-27.95,27.95-27.95h141.6c15.44,0,27.95,12.51,27.95,27.95v12.3"/>
		<path style="fill:none;stroke:#000000;stroke-width:15;stroke-linecap:round;stroke-linejoin:round;stroke-miterlimit:10;" d="&#10;&#9;&#9;&#9;M342.5,271.322v-30.644c0-6.945-4.903-12.923-11.713-14.283l-18.649-3.724c-5.048-1.008-9.232-4.592-10.886-9.467&#10;&#9;&#9;&#9;c-1.89-5.57-4.136-10.974-6.709-16.187c-2.281-4.622-1.868-10.118,0.991-14.407l10.556-15.835&#10;&#9;&#9;&#9;c3.851-5.777,3.09-13.469-1.82-18.378l-21.668-21.668c-4.909-4.909-12.602-5.671-18.379-1.82l-15.834,10.556&#10;&#9;&#9;&#9;c-4.289,2.859-9.785,3.273-14.407,0.991c-5.213-2.573-10.618-4.819-16.187-6.709c-4.875-1.654-8.458-5.838-9.467-10.886&#10;&#9;&#9;&#9;l-3.724-18.649c-1.36-6.81-7.339-11.713-14.283-11.713h-30.644c-6.945,0-12.923,4.903-14.283,11.713l-3.724,18.649&#10;&#9;&#9;&#9;c-1.008,5.048-4.592,9.232-9.467,10.886c-5.57,1.89-10.974,4.136-16.187,6.709c-4.622,2.281-10.118,1.868-14.407-0.991&#10;&#9;&#9;&#9;l-15.834-10.556c-5.777-3.851-13.469-3.09-18.379,1.82l-21.668,21.668c-4.909,4.909-5.671,12.602-1.82,18.378l10.556,15.835&#10;&#9;&#9;&#9;c2.859,4.289,3.273,9.785,0.991,14.407c-2.573,5.213-4.819,10.617-6.709,16.187c-1.654,4.875-5.838,8.458-10.886,9.467&#10;&#9;&#9;&#9;l-18.649,3.724c-6.81,1.36-11.713,7.339-11.713,14.283v30.644c0,6.945,4.903,12.923,11.713,14.283l18.649,3.724&#10;&#9;&#9;&#9;c5.048,1.008,9.232,4.592,10.886,9.467c1.89,5.57,4.136,10.974,6.709,16.187c2.281,4.622,1.868,10.118-0.991,14.407&#10;&#9;&#9;&#9;l-10.556,15.834c-3.851,5.777-3.09,13.469,1.82,18.378l21.668,21.668c4.909,4.909,12.602,5.671,18.379,1.82l15.834-10.556&#10;&#9;&#9;&#9;c4.289-2.859,9.785-3.273,14.407-0.991c5.213,2.573,10.618,4.819,16.187,6.709c4.875,1.654,8.458,5.838,9.467,10.886l3.724,18.649&#10;&#9;&#9;&#9;c1.36,6.81,7.339,11.713,14.283,11.713h30.644c6.945,0,12.923-4.903,14.283-11.713l3.724-18.649&#10;&#9;&#9;&#9;c1.008-5.048,4.592-9.232,9.467-10.886c5.57-1.89,10.974-4.136,16.187-6.709c4.622-2.281,10.118-1.868,14.407,0.991l15.834,10.556&#10;&#9;&#9;&#9;c5.777,3.851,13.469,3.09,18.379-1.82l21.668-21.668c4.909-4.909,5.671-12.602,1.82-18.378l-10.556-15.834&#10;&#9;&#9;&#9;c-2.859-4.289-3.273-9.785-0.991-14.407c2.573-5.213,4.819-10.617,6.709-16.187c1.654-4.875,5.838-8.458,10.886-9.467&#10;&#9;&#9;&#9;l18.649-3.724C337.597,284.245,342.5,278.266,342.5,271.322z"/>
		<path style="fill:none;stroke:#000000;stroke-width:15;stroke-linecap:round;stroke-linejoin:round;stroke-miterlimit:10;" d="&#10;&#9;&#9;&#9;M151.41,156.23c7.57-1.79,15.47-2.73,23.59-2.73c56.61,0,102.5,45.89,102.5,102.5S231.61,358.5,175,358.5S72.5,312.61,72.5,256&#10;&#9;&#9;&#9;c0-36.04,18.6-67.74,46.73-86.01"/>
		<g>
			<g>
				
					<line style="fill:none;stroke:#000000;stroke-width:15;stroke-linecap:round;stroke-linejoin:round;stroke-miterlimit:10;" x1="103.746" y1="231" x2="103.746" y2="281"/>
				
					<line style="fill:none;stroke:#000000;stroke-width:15;stroke-linecap:round;stroke-linejoin:round;stroke-miterlimit:10;" x1="138.746" y1="231" x2="138.746" y2="281"/>
				
					<line style="fill:none;stroke:#000000;stroke-width:15;stroke-linecap:round;stroke-linejoin:round;stroke-miterlimit:10;" x1="103.746" y1="231" x2="138.746" y2="281"/>
			</g>
			<g>
				
					<line style="fill:none;stroke:#000000;stroke-width:15;stroke-linecap:round;stroke-linejoin:round;stroke-miterlimit:10;" x1="216.254" y1="231" x2="216.254" y2="281"/>
				<path style="fill:none;stroke:#000000;stroke-width:15;stroke-linecap:round;stroke-linejoin:round;stroke-miterlimit:10;" d="&#10;&#9;&#9;&#9;&#9;&#9;M216.254,261h15c8.284,0,15-6.716,15-15v0c0-8.284-6.716-15-15-15h-15"/>
			</g>
			<g>
				<path style="fill:none;stroke:#000000;stroke-width:15;stroke-linecap:round;stroke-linejoin:round;stroke-miterlimit:10;" d="&#10;&#9;&#9;&#9;&#9;&#9;M168.746,231v49.958c0.553,0.095,17.508,0,17.508,0"/>
			</g>
		</g>
		<g>
			<path style="fill:none;stroke:#000000;stroke-width:15;stroke-linecap:round;stroke-linejoin:round;stroke-miterlimit:10;" d="&#10;&#9;&#9;&#9;&#9;M444.5,286h-40c-16.569,0-30-13.431-30-30v0c0-16.569,13.431-30,30-30h40c16.569,0,30,13.431,30,30v0&#10;&#9;&#9;&#9;&#9;C474.5,272.569,461.069,286,444.5,286z"/>
			
				<line style="fill:none;stroke:#000000;stroke-width:15;stroke-linecap:round;stroke-linejoin:round;stroke-miterlimit:10;" x1="442" y1="256" x2="442" y2="256"/>
			
				<line style="fill:none;stroke:#000000;stroke-width:15;stroke-linecap:round;stroke-linejoin:round;stroke-miterlimit:10;" x1="407" y1="256" x2="407" y2="256"/>
		</g>
		<g>
			<g>
				
					<line style="fill:none;stroke:#000000;stroke-width:15;stroke-linecap:round;stroke-linejoin:round;stroke-miterlimit:10;" x1="363.667" y1="45.252" x2="337" y2="85.252"/>
				
					<line style="fill:none;stroke:#000000;stroke-width:15;stroke-linecap:round;stroke-linejoin:round;stroke-miterlimit:10;" x1="337" y1="45.252" x2="363.667" y2="85.252"/>
			</g>
			<g>
				
					<polyline style="fill:none;stroke:#000000;stroke-width:15;stroke-linecap:round;stroke-linejoin:round;stroke-miterlimit:10;" points="&#10;&#9;&#9;&#9;&#9;&#9;447.833,45.252 474.5,45.252 447.833,85.252 474.5,85.252 &#9;&#9;&#9;&#9;"/>
			</g>
			<g>
				
					<polyline style="fill:none;stroke:#000000;stroke-width:15;stroke-linecap:round;stroke-linejoin:round;stroke-miterlimit:10;" points="&#10;&#9;&#9;&#9;&#9;&#9;419.083,45.252 405.75,65.252 405.75,85.252 405.75,65.252 392.417,45.252 &#9;&#9;&#9;&#9;"/>
			</g>
		</g>
	</g>
</g>
<g>
</g>
<g>
</g>
<g>
</g>
<g>
</g>
<g>
</g>
<g>
</g>
<g>
</g>
<g>
</g>
<g>
</g>
<g>
</g>
<g>
</g>
<g>
</g>
<g>
</g>
<g>
</g>
<g>
</g>
</svg>