<?xml version="1.0" encoding="UTF-8"?>
<svg id="Layer_1" data-name="Layer 1" xmlns="http://www.w3.org/2000/svg" viewBox="0 0 1080 1080">
  <defs>
    <style>
      .cls-1 {
        fill: #f7fbf1;
      }

      .cls-2 {
        fill: #76b901;
      }
    </style>
  </defs>
  <path d="M1046.82,378.99c4.25,4.25,3.91,17.8-2.22,20.44-14.1,6.08-16.32-4.87-20.75-5.41l-261.34-1.91-5.43-8.06,266.77-.95c5.32-5.65,16.39-10.69,22.97-4.11Z"/>
  <g>
    <path d="M27.96,457.12h130.52v-49.45h-37.13c-1.35,0-6.87,10.85-16.91,8.09-14.7-4.04-10.71-25.98,3.42-25.93,5.81.02,13.51,8.85,15.74,8.85h46.13v58.44h139.52l-3.38,11.24h-136.15v65.19h128.27l-3.38,11.24h-132.77l-3.38-3.37v-73.05H16.71c-1.94-20.11,2.58-44.65.1-64.17-1.11-8.74-14.35-19.04-.99-27.74,11.43-7.45,24.45,5.91,18.63,16.24-1.3,2.3-6.49,6.63-6.49,7.11v57.32Z"/>
    <path d="M212.49,380.7h137.27c.92,6.81-3.22,11.25-10.02,11.35l-138.5-.11v-38.21c0-.59-6.18,1.51-6.7-8.1-1.12-20.77,28.32-17.5,26.38-.06-.58,5.24-6.81,8.09-7.96,12.01-1.96,6.68.35,16.01-.47,23.13Z"/>
  </g>
  <path d="M797.57,457.13c2.69-2.81,66.27,1.55,77.75.09,9.35-1.19,15.08-12.55,25.68-3.38,9.3,8.04,2.25,22.25-10.05,21.5-7.1-.43-8.11-5.9-13.52-6.95-21.14-4.09-53.68,3.25-76.16-.35l-3.7-10.91Z"/>
  <g>
    <path class="cls-2" d="M793.08,539.17c0,132.12-107.23,239.23-239.5,239.23s-239.5-107.11-239.5-239.23,107.23-239.23,239.5-239.23,239.5,107.11,239.5,239.23ZM401.52,499.83h-49.51v13.5s18-.01,18-.01v58.44h13.5v-58.44h18.01s-.01-13.49-.01-13.49ZM681.69,499.83c-9.42-1.66-22.67,1.21-32.63,0v71.93l12.52-2.1c2.78-3.96.06-17.87.97-23.82.51-3.38-1.35-3.53,3.43-3.36,15.02.52,11.7,36.81,34.83,29.27l-13.18-28.47c-.48-4.96,8.98-8.57,10.47-13.56,3.67-12.3-3.16-27.55-16.41-29.89ZM757.07,499.83h-51.76v13.5s18-.01,18-.01v58.44c5.47-.16,12.11,1.71,15.75-3.37v-55.07h18.01s-.01-13.49-.01-13.49ZM410.53,549.3l30.56-2.15c2.3-41.49-51.24-38.13-46.13,3.04,4.22,33.97,51.1,20.66,42.56,8.11-3.44-5.05-30.4,7.75-26.99-9ZM480.28,571.76c4.38-.08,11.47,1.52,13.19-3.68-.48-14.43,6.32-47.95-14.52-50.25-5.27-.58-8.96,1.7-13.29,1.81-2.75.07-16.88-4.69-16.88,1.55v47.2c0,4.6,15.75,4.6,15.75,0v-33.72c0-5.93,15.75-2.86,15.75,2.25v34.84ZM516.3,531.32c3.07-4.13,29.07,5.76,24.66-7.8-2.52-7.77-40.73-11.82-38.37,13.44,1.29,13.79,16.27,13.34,27.21,14.59v6.72c-10.35,2.84-25.61-8.25-29.15,5.39,13.27,17.38,54.18,6.66,41.54-18.9-4.83-9.77-25.51-1.84-25.89-13.43ZM567.48,518.3c-26.28,4.3-24.93,57.3,8.22,53.41,28.07-3.3,26.9-59.16-8.22-53.41ZM604.05,517.82v53.95h13.5v-34.84c0-7.69,26.4-2.14,22.48-16.82l-35.98-2.28Z"/>
    <path d="M106.72,681.91h92.26v-74.18h106.89l3.38,11.24h-99.02v62.94h129.4c.75,0,6.18,6.58,7.86,7.9l.02,3.34h-137.27v52.82c0,.57,5.35,4.03,6.31,7.21,6.07,19.99-21.69,24.1-24.34,8.42-1.85-10.96,6.77-14.73,6.77-15.63v-52.82h-100.14l-3.38-3.37v-74.18c0-.49-4.85-4.71-5.81-7.78-4.19-13.38,12.84-21.39,21.68-12.57,11.65,11.62-4.61,20.81-4.61,22.6v64.06Z"/>
    <path d="M797.59,618.96l3.75-11.32,242.77.24c9.08-9.54,25.99-11.74,26,5.46.02,18.67-17.79,11.81-28.24,5.5l-244.28.12Z"/>
    <path d="M808.83,533.55h129.4c1.36,0,6.87-10.84,16.91-8.09,14.06,3.86,10.68,24.92-1.25,26.13-7.11.72-10.96-6.93-17.81-6.91l-126.27-2-.98-9.13Z"/>
    <path d="M759.32,693.15c-.36-5.06,5.63-10.33,10.18-11.19,21.93-4.14,55.75,3.17,78.84.08,7.64-1.02,8.57-6.69,15.61-7.11,18.77-1.11,18.71,26.35,0,25.19-7.13-.44-10.56-6.97-11.25-6.97h-93.39Z"/>
    <path class="cls-1" d="M681.69,499.83c13.24,2.34,20.08,17.59,16.41,29.89-1.49,4.98-10.94,8.6-10.47,13.56l13.18,28.47c-23.13,7.54-19.81-28.75-34.83-29.27-4.77-.17-2.91-.02-3.43,3.36-.9,5.95,1.82,19.86-.97,23.82l-12.52,2.1v-71.93c9.96,1.21,23.21-1.66,32.63,0ZM662.55,531.31c30.38,3.82,30.7-22.5,0-18v18Z"/>
    <path class="cls-1" d="M480.28,571.76v-34.84c0-5.11-15.75-8.18-15.75-2.25v33.72c0,4.6-15.75,4.6-15.75,0v-47.2c0-6.24,14.13-1.48,16.88-1.55,4.33-.1,8.03-2.38,13.29-1.81,20.84,2.29,14.04,35.81,14.52,50.25-1.72,5.2-8.81,3.6-13.19,3.68Z"/>
    <path class="cls-1" d="M410.53,549.3c-3.41,16.75,23.55,3.95,26.99,9,8.54,12.55-38.35,25.86-42.56-8.11-5.11-41.17,48.43-44.53,46.13-3.04l-30.56,2.15ZM426.26,540.28c.6-12.63-13.09-16.26-17.96-3.31-1.71,6.58,15.69,2.06,17.96,3.31Z"/>
    <path class="cls-1" d="M757.07,499.83v13.5s-18-.01-18-.01v55.07c-3.65,5.08-10.28,3.21-15.75,3.37v-58.44h-18.01s.01-13.49.01-13.49h51.76Z"/>
    <path class="cls-1" d="M567.48,518.3c35.12-5.75,36.29,50.11,8.22,53.41-33.15,3.89-34.5-49.1-8.22-53.41ZM566.08,557.97c17.18,10.65,24.12-35.13-.54-25.35-2.82,3.92-2.79,23.29.54,25.35Z"/>
    <path class="cls-1" d="M516.3,531.32c.37,11.6,21.06,3.66,25.89,13.43,12.63,25.56-28.27,36.28-41.54,18.9,3.55-13.64,18.81-2.54,29.15-5.39v-6.72c-10.94-1.25-25.92-.8-27.21-14.59-2.35-25.27,35.85-21.21,38.37-13.44,4.4,13.57-21.59,3.68-24.66,7.8Z"/>
    <polygon class="cls-1" points="401.52 499.83 401.53 513.33 383.51 513.32 383.51 571.76 370.01 571.76 370.01 513.32 352 513.33 352.01 499.83 401.52 499.83"/>
    <path class="cls-1" d="M604.05,517.82l35.98,2.28c3.92,14.68-22.48,9.14-22.48,16.82v34.84h-13.5v-53.95Z"/>
    <path class="cls-2" d="M662.55,531.31v-18c30.7-4.49,30.38,21.82,0,18Z"/>
    <path class="cls-2" d="M426.26,540.28c-2.27-1.25-19.67,3.27-17.96-3.31,4.86-12.95,18.56-9.32,17.96,3.31Z"/>
    <path class="cls-2" d="M566.08,557.97c-3.33-2.06-3.35-21.43-.54-25.35,24.66-9.78,17.72,36,.54,25.35Z"/>
  </g>
</svg>