<?xml version="1.0" encoding="UTF-8"?>
<svg id="Layer_1" data-name="Layer 1" xmlns="http://www.w3.org/2000/svg" viewBox="0 0 1080 1080">
  <defs>
    <style>
      .cls-1 {
        fill: #f65927;
      }

      .cls-2 {
        fill: #343c45;
      }

      .cls-3 {
        fill: #f95a28;
      }

      .cls-4 {
        fill: #363f47;
      }

      .cls-5 {
        fill: #f45c2c;
      }

      .cls-6 {
        fill: #fc5824;
      }

      .cls-7 {
        fill: #333b44;
      }

      .cls-8 {
        fill: #333c44;
      }

      .cls-9 {
        fill: #fb5823;
      }

      .cls-10 {
        fill: #323a43;
      }

      .cls-11 {
        fill: #384048;
      }

      .cls-12 {
        fill: #f5663a;
      }

      .cls-13 {
        fill: #f46637;
      }

      .cls-14 {
        fill: #f95b29;
      }

      .cls-15 {
        fill: #f85b28;
      }

      .cls-16 {
        fill: #f75b28;
      }

      .cls-17 {
        fill: #f75b29;
      }

      .cls-18 {
        fill: #f35c2b;
      }
    </style>
  </defs>
  <path class="cls-2" d="M1036.77,902.51h-59.36v-123.68c0-17.71-21.32-22.42-35.74-20.13-11.76,1.86-36.12,21.63-36.12,32.66v111.16h-59.36v-194.14h59.36l.03,28.18c25.3-32.92,68.06-42.64,102.86-17.01,9.78,7.2,28.33,38.65,28.33,49.89v133.08Z"/>
  <path class="cls-8" d="M695.4,705.99c136.86-21.64,166.06,183.82,30.16,199.3-134.79,15.36-155.79-179.44-30.16-199.3ZM701.61,759.2c-45.29,9.44-44.2,85.72,2.61,92.99,72.88,11.32,70.37-108.21-2.61-92.99Z"/>
  <polygon class="cls-6" points="658.72 392.11 421.28 392.11 421.28 290.35 425.96 285.65 654.04 285.65 658.72 290.35 658.72 392.11"/>
  <path class="cls-7" d="M43.23,708.37l25.01.02,2.91-45.62h56.64s2.91,45.62,2.91,45.62l40.63-.02v45.4c-5.17,9.8-37.83,1.87-40.63,4.68l1.54,87.73c11.64,11.46,25.36,3.5,39.09,3.09v50.1c-26.85,4.89-64.58,12.52-85.61-9.7-24.25-25.61-15.31-97.31-17.48-131.22l-25.01.02v-50.1Z"/>
  <path class="cls-7" d="M541.56,661.4c8.78,2.72,3.14,38.16,4.67,46.98l40.63-.02v50.1h-40.62v86.11c11.8,13.36,25.95,5.47,40.62,4.7v50.1c-26.03,5.39-67.68,11.96-87.01-11.43-2.92-3.53-12.96-24.9-12.96-27.71v-101.77h-28.12v-50.1h28.12v-46.97h54.68Z"/>
  <path class="cls-10" d="M340.04,705.24v56.36c-21.1-1.89-47.9,5.43-62.49,21.24-3.87,4.19-15.61,22.83-15.61,27.29v87.67l-4.69,4.7h-54.68v-194.14h59.36c.37,9.86-.53,19.92,0,29.8.19,3.54-2.04,8.6,3.09,7.75,9.77-31.65,43.92-43.98,75.02-40.68Z"/>
  <polygon class="cls-4" points="430.65 708.37 430.65 902.51 368.16 902.51 368.16 713.07 372.85 708.37 430.65 708.37"/>
  <rect class="cls-9" x="421.28" y="407.77" width="237.45" height="25.05"/>
  <rect class="cls-11" x="368.16" y="639.48" width="62.49" height="50.1"/>
  <path class="cls-1" d="M474.39,486.05l1.39-9.57,42.03-3.3,5.23-24.83,35.73.11,3.56,24.63c7.32,4.56,55.79-8.3,38.61,12.96h-126.54Z"/>
  <path class="cls-14" d="M536.13,101.43c32.44-5.26,39.36,44.53,14.18,52.04-40.47,12.08-50.59-46.14-14.18-52.04Z"/>
  <path class="cls-3" d="M445.19,167.58c32.95-1.73,37.87,45.54,11.35,51.63-45,10.34-45.38-49.85-11.35-51.63Z"/>
  <path class="cls-14" d="M623.46,170.49c48.67-11.17,46.59,59.17.02,48.74-23.1-5.17-23.26-43.41-.02-48.74Z"/>
  <path class="cls-15" d="M347.23,242.71c23.11-27.74,70.02,15.95,35.01,39.8-26.87,18.3-53.56-17.52-35.01-39.8Z"/>
  <path class="cls-16" d="M732.79,242.69c2.79,3.51,5.8,15.03,5.69,19.53-.86,35.15-59.9,34.32-51.58-9.36,3.66-19.19,35.23-23.58,45.9-10.17Z"/>
  <rect class="cls-17" x="533.75" y="166.67" width="12.5" height="106.46"/>
  <polygon class="cls-5" points="374.41 301.31 374.41 354.54 408.79 354.55 408.78 367.06 361.91 367.06 361.91 301.31 374.41 301.31"/>
  <polygon class="cls-18" points="718.09 301.31 718.09 367.06 671.22 367.06 671.21 354.55 705.59 354.54 705.59 301.31 718.09 301.31"/>
  <polygon class="cls-12" points="639.98 232.42 639.98 276.26 593.11 276.26 593.1 260.59 624.37 260.62 624.34 232.41 639.98 232.42"/>
  <polygon class="cls-13" points="455.66 232.41 455.63 260.62 486.9 260.59 486.9 276.28 441.38 273.33 440 232.41 455.66 232.41"/>
</svg>