<svg xmlns="http://www.w3.org/2000/svg" width="32" height="32" viewBox="0 0 24 24" fill="none" stroke="currentColor" stroke-width="2" stroke-linecap="round" stroke-linejoin="round">
  <path d="M12 2a8 8 0 0 0-8 8c0 2.76 1.12 5.26 2.93 7.07L12 22l5.07-4.93A9.97 9.97 0 0 0 20 10a8 8 0 0 0-8-8z"/>
  <path d="M12 12m-3 0a3 3 0 1 0 6 0a3 3 0 1 0-6 0"/>
  <path d="M12 2v4"/>
  <path d="M12 18v4"/>
  <path d="M4.93 4.93l2.83 2.83"/>
  <path d="M16.24 16.24l2.83 2.83"/>
  <path d="M2 12h4"/>
  <path d="M18 12h4"/>
  <path d="M4.93 19.07l2.83-2.83"/>
  <path d="M16.24 7.76l2.83-2.83"/>
</svg>